solid 
   facet normal -5.560031e-01 2.642880e-04 8.311801e-01
      outer loop
         vertex -1.021655e+01 6.255832e-16 3.418407e+00
         vertex -1.032048e+01 -5.000000e+01 3.364784e+00
         vertex -7.875962e+00 -5.000000e+01 5.000000e+00
      endloop
   endfacet
   facet normal -1.176404e-01 2.624812e-03 9.930528e-01
      outer loop
         vertex -1.463125e+01 -1.709202e+01 2.075165e+00
         vertex -1.600000e+01 -5.000000e+01 2.000000e+00
         vertex -1.307940e+01 -5.000000e+01 2.345984e+00
      endloop
   endfacet
   facet normal 3.464103e-01 1.348624e-04 9.380831e-01
      outer loop
         vertex -1.897742e+01 1.162032e-15 2.359779e+00
         vertex -2.167952e+01 -5.000000e+01 3.364784e+00
         vertex -1.892060e+01 -5.000000e+01 2.345984e+00
      endloop
   endfacet
   facet normal 7.071747e-01 2.488609e-04 7.070388e-01
      outer loop
         vertex -2.425656e+01 1.485286e-15 5.114944e+00
         vertex -2.550116e+01 -4.980656e+01 6.377314e+00
         vertex -2.412404e+01 -5.000000e+01 5.000000e+00
      endloop
   endfacet
   facet normal 8.429439e-01 -1.174707e-04 5.380015e-01
      outer loop
         vertex -2.625438e+01 1.607617e-15 7.351727e+00
         vertex -2.671545e+01 -4.895161e+01 8.063451e+00
         vertex -2.635132e+01 -4.933425e+01 7.492852e+00
      endloop
   endfacet
   facet normal 9.040130e-01 -6.268402e-04 4.275045e-01
      outer loop
         vertex -2.766190e+01 3.387606e-15 1.000000e+01
         vertex -2.743290e+01 -4.728680e+01 9.446406e+00
         vertex -2.716985e+01 -4.814270e+01 8.888890e+00
      endloop
   endfacet
   facet normal 9.288972e-01 -5.724625e-06 3.703377e-01
      outer loop
         vertex -2.766190e+01 3.387606e-15 1.000000e+01
         vertex -2.765257e+01 -4.549039e+01 9.975893e+00
         vertex -2.756911e+01 -4.651001e+01 9.766535e+00
      endloop
   endfacet
   facet normal 9.325809e-01 0.000000e+00 3.609610e-01
      outer loop
         vertex -2.765257e+01 -4.549039e+01 9.975893e+00
         vertex -2.766190e+01 3.387606e-15 1.000000e+01
         vertex -2.766190e+01 -4.500000e+01 1.000000e+01
      endloop
   endfacet
   facet normal 5.656856e-01 -3.964388e-04 8.246209e-01
      outer loop
         vertex -2.412404e+01 -5.000000e+01 5.000000e+00
         vertex -2.178345e+01 1.333852e-15 3.418407e+00
         vertex -2.425656e+01 1.485286e-15 5.114944e+00
      endloop
   endfacet
   facet normal 1.199605e-01 -6.671128e-03 9.927562e-01
      outer loop
         vertex -1.714727e+01 -1.277879e+01 2.052761e+00
         vertex -1.600000e+01 9.797175e-16 2.000000e+00
         vertex -1.897742e+01 1.162032e-15 2.359779e+00
      endloop
   endfacet
   facet normal -3.529841e-01 -2.697239e-04 9.356293e-01
      outer loop
         vertex -1.032048e+01 -5.000000e+01 3.364784e+00
         vertex -1.021655e+01 6.255832e-16 3.418407e+00
         vertex -1.302258e+01 7.974029e-16 2.359779e+00
      endloop
   endfacet
   facet normal -7.458221e-01 -1.753424e-03 6.661428e-01
      outer loop
         vertex -6.498844e+00 -4.980656e+01 6.377314e+00
         vertex -5.745625e+00 3.518181e-16 7.351727e+00
         vertex -7.743444e+00 4.741492e-16 5.114944e+00
      endloop
   endfacet
   facet normal -9.325809e-01 0.000000e+00 3.609610e-01
      outer loop
         vertex -4.347427e+00 -4.549039e+01 9.975893e+00
         vertex -4.338096e+00 -4.500000e+01 1.000000e+01
         vertex -4.338096e+00 5.312636e-16 1.000000e+01
      endloop
   endfacet
   facet normal -9.200545e-01 -1.310337e-04 3.917904e-01
      outer loop
         vertex -4.338096e+00 5.312636e-16 1.000000e+01
         vertex -4.567101e+00 -4.728680e+01 9.446406e+00
         vertex -4.430890e+00 -4.651001e+01 9.766535e+00
      endloop
   endfacet
   facet normal -8.755274e-01 -1.221649e-03 4.831669e-01
      outer loop
         vertex -5.745625e+00 3.518181e-16 7.351727e+00
         vertex -5.284552e+00 -4.895161e+01 8.063451e+00
         vertex -4.830155e+00 -4.814270e+01 8.888890e+00
      endloop
   endfacet
   facet normal -7.953868e-01 1.707684e-04 6.061022e-01
      outer loop
         vertex -5.745625e+00 3.518181e-16 7.351727e+00
         vertex -6.498844e+00 -4.980656e+01 6.377314e+00
         vertex -5.648677e+00 -4.933425e+01 7.492852e+00
      endloop
   endfacet
   facet normal 1.998888e-01 2.135443e-04 9.798186e-01
      outer loop
         vertex -1.892060e+01 -5.000000e+01 2.345984e+00
         vertex -1.844737e+01 -1.551027e+01 2.241926e+00
         vertex -1.850000e+01 -1.500000e+01 2.252551e+00
      endloop
   endfacet
   facet normal 1.427137e-01 1.479545e-03 9.897629e-01
      outer loop
         vertex -1.892060e+01 -5.000000e+01 2.345984e+00
         vertex -1.743960e+01 -1.704391e+01 2.083174e+00
         vertex -1.808958e+01 -1.637246e+01 2.175892e+00
      endloop
   endfacet
   facet normal 6.878095e-03 -2.864125e-04 9.999763e-01
      outer loop
         vertex -1.600000e+01 -5.000000e+01 2.000000e+00
         vertex -1.559577e+01 -1.746710e+01 2.006538e+00
         vertex -1.657630e+01 -1.743267e+01 2.013292e+00
      endloop
   endfacet
   facet normal -1.392155e-01 1.584410e-03 9.902608e-01
      outer loop
         vertex -1.307940e+01 -5.000000e+01 2.345984e+00
         vertex -1.392803e+01 -1.639891e+01 2.172918e+00
         vertex -1.463125e+01 -1.709202e+01 2.075165e+00
      endloop
   endfacet
   facet normal -2.004395e-01 2.054996e-04 9.797061e-01
      outer loop
         vertex -1.307940e+01 -5.000000e+01 2.345984e+00
         vertex -1.350589e+01 -1.482846e+01 2.251350e+00
         vertex -1.355388e+01 -1.551622e+01 2.241677e+00
      endloop
   endfacet
   facet normal -1.555998e-01 -2.986611e-03 9.878157e-01
      outer loop
         vertex -1.302258e+01 7.974029e-16 2.359779e+00
         vertex -1.441660e+01 -1.306536e+01 2.100692e+00
         vertex -1.378422e+01 -1.384228e+01 2.197954e+00
      endloop
   endfacet
   facet normal -1.836762e-02 5.466940e-04 9.998312e-01
      outer loop
         vertex -1.600000e+01 9.797175e-16 2.000000e+00
         vertex -1.624340e+01 -1.251188e+01 2.002370e+00
         vertex -1.529645e+01 -1.260104e+01 2.019815e+00
      endloop
   endfacet
   facet normal 1.257205e-01 -5.829198e-03 9.920486e-01
      outer loop
         vertex -1.897742e+01 1.162032e-15 2.359779e+00
         vertex -1.788200e+01 -1.335438e+01 2.142490e+00
         vertex -1.714727e+01 -1.277879e+01 2.052761e+00
      endloop
   endfacet
   facet normal 1.979859e-01 -7.054962e-04 9.802046e-01
      outer loop
         vertex -1.897742e+01 1.162032e-15 2.359779e+00
         vertex -1.850000e+01 -1.500000e+01 2.252551e+00
         vertex -1.835228e+01 -1.415336e+01 2.223323e+00
      endloop
   endfacet
   facet normal -7.123702e-02 6.846859e-04 9.974592e-01
      outer loop
         vertex -1.559577e+01 -1.746710e+01 2.006538e+00
         vertex -1.600000e+01 -5.000000e+01 2.000000e+00
         vertex -1.463125e+01 -1.709202e+01 2.075165e+00
      endloop
   endfacet
   facet normal 7.458220e-01 -1.753408e-03 6.661430e-01
      outer loop
         vertex -2.625438e+01 1.607617e-15 7.351727e+00
         vertex -2.550116e+01 -4.980656e+01 6.377314e+00
         vertex -2.425656e+01 1.485286e-15 5.114944e+00
      endloop
   endfacet
   facet normal 8.830268e-01 -1.806396e-03 4.693191e-01
      outer loop
         vertex -2.625438e+01 1.607617e-15 7.351727e+00
         vertex -2.766190e+01 3.387606e-15 1.000000e+01
         vertex -2.716985e+01 -4.814270e+01 8.888890e+00
      endloop
   endfacet
   facet normal 5.560029e-01 2.643086e-04 8.311803e-01
      outer loop
         vertex -2.167952e+01 -5.000000e+01 3.364784e+00
         vertex -2.178345e+01 1.333852e-15 3.418407e+00
         vertex -2.412404e+01 -5.000000e+01 5.000000e+00
      endloop
   endfacet
   facet normal -7.071744e-01 2.488664e-04 7.070391e-01
      outer loop
         vertex -7.875962e+00 -5.000000e+01 5.000000e+00
         vertex -6.498844e+00 -4.980656e+01 6.377314e+00
         vertex -7.743444e+00 4.741492e-16 5.114944e+00
      endloop
   endfacet
   facet normal -9.040127e-01 -6.268399e-04 4.275051e-01
      outer loop
         vertex -4.830155e+00 -4.814270e+01 8.888890e+00
         vertex -4.567101e+00 -4.728680e+01 9.446406e+00
         vertex -4.338096e+00 5.312636e-16 1.000000e+01
      endloop
   endfacet
   facet normal -8.429442e-01 -1.174971e-04 5.380010e-01
      outer loop
         vertex -5.284552e+00 -4.895161e+01 8.063451e+00
         vertex -5.745625e+00 3.518181e-16 7.351727e+00
         vertex -5.648677e+00 -4.933425e+01 7.492852e+00
      endloop
   endfacet
   facet normal 1.176404e-01 2.632540e-03 9.930528e-01
      outer loop
         vertex -1.600000e+01 -5.000000e+01 2.000000e+00
         vertex -1.743960e+01 -1.704391e+01 2.083174e+00
         vertex -1.892060e+01 -5.000000e+01 2.345984e+00
      endloop
   endfacet
   facet normal -1.818233e-01 4.726107e-04 9.833311e-01
      outer loop
         vertex -1.392803e+01 -1.639891e+01 2.172918e+00
         vertex -1.307940e+01 -5.000000e+01 2.345984e+00
         vertex -1.355388e+01 -1.551622e+01 2.241677e+00
      endloop
   endfacet
   facet normal -9.344518e-02 -3.651694e-03 9.956177e-01
      outer loop
         vertex -1.441660e+01 -1.306536e+01 2.100692e+00
         vertex -1.600000e+01 9.797175e-16 2.000000e+00
         vertex -1.529645e+01 -1.260104e+01 2.019815e+00
      endloop
   endfacet
   facet normal 1.724988e-01 -1.877555e-03 9.850079e-01
      outer loop
         vertex -1.788200e+01 -1.335438e+01 2.142490e+00
         vertex -1.897742e+01 1.162032e-15 2.359779e+00
         vertex -1.835228e+01 -1.415336e+01 2.223323e+00
      endloop
   endfacet
   facet normal 3.529840e-01 -2.697107e-04 9.356293e-01
      outer loop
         vertex -1.897742e+01 1.162032e-15 2.359779e+00
         vertex -2.178345e+01 1.333852e-15 3.418407e+00
         vertex -2.167952e+01 -5.000000e+01 3.364784e+00
      endloop
   endfacet
   facet normal -1.199604e-01 -6.887149e-03 9.927548e-01
      outer loop
         vertex -1.302258e+01 7.974029e-16 2.359779e+00
         vertex -1.600000e+01 9.797175e-16 2.000000e+00
         vertex -1.441660e+01 -1.306536e+01 2.100692e+00
      endloop
   endfacet
   facet normal -3.464102e-01 1.348622e-04 9.380831e-01
      outer loop
         vertex -1.302258e+01 7.974029e-16 2.359779e+00
         vertex -1.307940e+01 -5.000000e+01 2.345984e+00
         vertex -1.032048e+01 -5.000000e+01 3.364784e+00
      endloop
   endfacet
   facet normal 8.755272e-01 -1.221624e-03 4.831673e-01
      outer loop
         vertex -2.625438e+01 1.607617e-15 7.351727e+00
         vertex -2.716985e+01 -4.814270e+01 8.888890e+00
         vertex -2.671545e+01 -4.895161e+01 8.063451e+00
      endloop
   endfacet
   facet normal -5.656854e-01 -3.964341e-04 8.246210e-01
      outer loop
         vertex -7.875962e+00 -5.000000e+01 5.000000e+00
         vertex -7.743444e+00 4.741492e-16 5.114944e+00
         vertex -1.021655e+01 6.255832e-16 3.418407e+00
      endloop
   endfacet
   facet normal -9.288957e-01 -5.726864e-06 3.703413e-01
      outer loop
         vertex -4.338096e+00 5.312636e-16 1.000000e+01
         vertex -4.430890e+00 -4.651001e+01 9.766535e+00
         vertex -4.347427e+00 -4.549039e+01 9.975893e+00
      endloop
   endfacet
   facet normal 8.114468e-02 1.029114e-03 9.967018e-01
      outer loop
         vertex -1.600000e+01 -5.000000e+01 2.000000e+00
         vertex -1.657630e+01 -1.743267e+01 2.013292e+00
         vertex -1.743960e+01 -1.704391e+01 2.083174e+00
      endloop
   endfacet
   facet normal 5.592803e-02 -8.988854e-04 9.984344e-01
      outer loop
         vertex -1.600000e+01 9.797175e-16 2.000000e+00
         vertex -1.714727e+01 -1.277879e+01 2.052761e+00
         vertex -1.624340e+01 -1.251188e+01 2.002370e+00
      endloop
   endfacet
   facet normal 7.953868e-01 1.707915e-04 6.061022e-01
      outer loop
         vertex -2.550116e+01 -4.980656e+01 6.377314e+00
         vertex -2.625438e+01 1.607617e-15 7.351727e+00
         vertex -2.635132e+01 -4.933425e+01 7.492852e+00
      endloop
   endfacet
   facet normal -8.830266e-01 -1.806390e-03 4.693195e-01
      outer loop
         vertex -4.338096e+00 5.312636e-16 1.000000e+01
         vertex -5.745625e+00 3.518181e-16 7.351727e+00
         vertex -4.830155e+00 -4.814270e+01 8.888890e+00
      endloop
   endfacet
   facet normal 1.825716e-01 4.613281e-04 9.831924e-01
      outer loop
         vertex -1.844737e+01 -1.551027e+01 2.241926e+00
         vertex -1.892060e+01 -5.000000e+01 2.345984e+00
         vertex -1.808958e+01 -1.637246e+01 2.175892e+00
      endloop
   endfacet
   facet normal -2.182852e-01 -2.117848e-05 9.758850e-01
      outer loop
         vertex -1.350589e+01 -1.482846e+01 2.251350e+00
         vertex -1.307940e+01 -5.000000e+01 2.345984e+00
         vertex -1.302258e+01 7.974029e-16 2.359779e+00
      endloop
   endfacet
   facet normal 9.200540e-01 -1.310597e-04 3.917916e-01
      outer loop
         vertex -2.766190e+01 3.387606e-15 1.000000e+01
         vertex -2.756911e+01 -4.651001e+01 9.766535e+00
         vertex -2.743290e+01 -4.728680e+01 9.446406e+00
      endloop
   endfacet
   facet normal 2.185132e-01 -2.090517e-05 9.758340e-01
      outer loop
         vertex -1.850000e+01 -1.500000e+01 2.252551e+00
         vertex -1.897742e+01 1.162032e-15 2.359779e+00
         vertex -1.892060e+01 -5.000000e+01 2.345984e+00
      endloop
   endfacet
   facet normal -1.915919e-01 -9.320789e-04 9.814742e-01
      outer loop
         vertex -1.378422e+01 -1.384228e+01 2.197954e+00
         vertex -1.350589e+01 -1.482846e+01 2.251350e+00
         vertex -1.302258e+01 7.974029e-16 2.359779e+00
      endloop
   endfacet
   facet normal -3.045124e-16 -0.000000e+00 -1.000000e+00
      outer loop
         vertex -3.200000e+01 -5.000000e+01 0.000000e+00
         vertex -3.200000e+01 -4.000000e+01 0.000000e+00
         vertex -2.300000e+01 -4.000000e+01 -2.740612e-15
      endloop
   endfacet
   facet normal 6.123234e-17 -7.498798e-33 -1.000000e+00
      outer loop
         vertex -9.000000e+00 -4.000000e+01 -5.510911e-16
         vertex -4.898587e-15 -4.000000e+01 0.000000e+00
         vertex -6.123234e-15 -5.000000e+01 0.000000e+00
      endloop
   endfacet
   facet normal 0.000000e+00 0.000000e+00 -1.000000e+00
      outer loop
         vertex -1.564421e+01 -1.252545e+01 0.000000e+00
         vertex -2.300000e+01 2.816688e-15 0.000000e+00
         vertex -9.000000e+00 1.102182e-15 0.000000e+00
      endloop
   endfacet
   facet normal -0.000000e+00 0.000000e+00 -1.000000e+00
      outer loop
         vertex -2.300000e+01 2.816688e-15 0.000000e+00
         vertex -1.810313e+01 -1.364840e+01 0.000000e+00
         vertex -1.850000e+01 -1.500000e+01 0.000000e+00
      endloop
   endfacet
   facet normal -0.000000e+00 0.000000e+00 -1.000000e+00
      outer loop
         vertex -2.300000e+01 2.816688e-15 0.000000e+00
         vertex -1.564421e+01 -1.252545e+01 0.000000e+00
         vertex -1.703854e+01 -1.272592e+01 0.000000e+00
      endloop
   endfacet
   facet normal 0.000000e+00 0.000000e+00 -1.000000e+00
      outer loop
         vertex -9.000000e+00 1.102182e-15 0.000000e+00
         vertex -1.360127e+01 -1.429567e+01 0.000000e+00
         vertex -1.436285e+01 -1.311063e+01 0.000000e+00
      endloop
   endfacet
   facet normal -2.726130e-17 1.751977e-17 -1.000000e+00
      outer loop
         vertex -9.000000e+00 -4.000000e+01 -5.510911e-16
         vertex -1.436285e+01 -1.688937e+01 0.000000e+00
         vertex -1.360127e+01 -1.570433e+01 0.000000e+00
      endloop
   endfacet
   facet normal 1.670864e-17 1.162111e-16 -1.000000e+00
      outer loop
         vertex -2.300000e+01 -4.000000e+01 -2.740612e-15
         vertex -1.703854e+01 -1.727408e+01 0.000000e+00
         vertex -1.564421e+01 -1.747455e+01 0.000000e+00
      endloop
   endfacet
   facet normal 2.314578e-16 6.796206e-17 -1.000000e+00
      outer loop
         vertex -2.300000e+01 -4.000000e+01 -2.740612e-15
         vertex -1.850000e+01 -1.500000e+01 0.000000e+00
         vertex -1.810313e+01 -1.635160e+01 0.000000e+00
      endloop
   endfacet
   facet normal 1.563943e-16 8.564578e-17 -1.000000e+00
      outer loop
         vertex -2.300000e+01 -4.000000e+01 -2.740612e-15
         vertex -9.000000e+00 -4.000000e+01 -5.510911e-16
         vertex -6.123234e-15 -5.000000e+01 0.000000e+00
      endloop
   endfacet
   facet normal 2.283843e-16 6.851529e-17 -1.000000e+00
      outer loop
         vertex -2.300000e+01 -4.000000e+01 -2.740612e-15
         vertex -2.300000e+01 2.816688e-15 0.000000e+00
         vertex -1.850000e+01 -1.500000e+01 0.000000e+00
      endloop
   endfacet
   facet normal 0.000000e+00 0.000000e+00 -1.000000e+00
      outer loop
         vertex -1.564421e+01 -1.252545e+01 0.000000e+00
         vertex -9.000000e+00 1.102182e-15 0.000000e+00
         vertex -1.436285e+01 -1.311063e+01 0.000000e+00
      endloop
   endfacet
   facet normal 1.563943e-16 7.059608e-17 -1.000000e+00
      outer loop
         vertex -9.000000e+00 -4.000000e+01 -5.510911e-16
         vertex -2.300000e+01 -4.000000e+01 -2.740612e-15
         vertex -1.564421e+01 -1.747455e+01 0.000000e+00
      endloop
   endfacet
   facet normal 8.514237e-17 9.825954e-17 -1.000000e+00
      outer loop
         vertex -1.703854e+01 -1.727408e+01 0.000000e+00
         vertex -2.300000e+01 -4.000000e+01 -2.740612e-15
         vertex -1.810313e+01 -1.635160e+01 0.000000e+00
      endloop
   endfacet
   facet normal -0.000000e+00 -2.740612e-16 -1.000000e+00
      outer loop
         vertex -2.300000e+01 -4.000000e+01 -2.740612e-15
         vertex -6.123234e-15 -5.000000e+01 0.000000e+00
         vertex -3.200000e+01 -5.000000e+01 0.000000e+00
      endloop
   endfacet
   facet normal -0.000000e+00 0.000000e+00 -1.000000e+00
      outer loop
         vertex -2.300000e+01 2.816688e-15 0.000000e+00
         vertex -1.703854e+01 -1.272592e+01 0.000000e+00
         vertex -1.810313e+01 -1.364840e+01 0.000000e+00
      endloop
   endfacet
   facet normal -9.846539e-18 2.156089e-17 -1.000000e+00
      outer loop
         vertex -9.000000e+00 -4.000000e+01 -5.510911e-16
         vertex -1.564421e+01 -1.747455e+01 0.000000e+00
         vertex -1.436285e+01 -1.688937e+01 0.000000e+00
      endloop
   endfacet
   facet normal -4.702246e-17 1.377728e-17 -1.000000e+00
      outer loop
         vertex -9.000000e+00 1.102182e-15 0.000000e+00
         vertex -9.000000e+00 -4.000000e+01 -5.510911e-16
         vertex -1.360127e+01 -1.570433e+01 0.000000e+00
      endloop
   endfacet
   facet normal 0.000000e+00 0.000000e+00 -1.000000e+00
      outer loop
         vertex -9.000000e+00 1.102182e-15 0.000000e+00
         vertex -1.360127e+01 -1.570433e+01 0.000000e+00
         vertex -1.360127e+01 -1.429567e+01 0.000000e+00
      endloop
   endfacet
   facet normal 9.851171e-01 -1.718847e-01 0.000000e+00
      outer loop
         vertex -1.835228e+01 -1.415336e+01 2.223323e+00
         vertex -1.850000e+01 -1.500000e+01 2.252551e+00
         vertex -1.850000e+01 -1.500000e+01 0.000000e+00
      endloop
   endfacet
   facet normal 6.175893e-01 -7.864021e-01 1.245865e-02
      outer loop
         vertex -1.703854e+01 -1.272592e+01 0.000000e+00
         vertex -1.714727e+01 -1.277879e+01 2.052761e+00
         vertex -1.788200e+01 -1.335438e+01 2.142490e+00
      endloop
   endfacet
   facet normal -9.333271e-02 -9.954096e-01 -2.118352e-02
      outer loop
         vertex -1.564421e+01 -1.252545e+01 0.000000e+00
         vertex -1.529645e+01 -1.260104e+01 2.019815e+00
         vertex -1.624340e+01 -1.251188e+01 2.002370e+00
      endloop
   endfacet
   facet normal -7.751639e-01 -6.317295e-01 -6.221253e-03
      outer loop
         vertex -1.436285e+01 -1.311063e+01 0.000000e+00
         vertex -1.378422e+01 -1.384228e+01 2.197954e+00
         vertex -1.441660e+01 -1.306536e+01 2.100692e+00
      endloop
   endfacet
   facet normal -9.974736e-01 6.937837e-02 1.526579e-02
      outer loop
         vertex -1.360127e+01 -1.570433e+01 0.000000e+00
         vertex -1.355388e+01 -1.551622e+01 2.241677e+00
         vertex -1.350589e+01 -1.482846e+01 2.251350e+00
      endloop
   endfacet
   facet normal -7.003361e-01 7.135070e-01 -2.090768e-02
      outer loop
         vertex -1.436285e+01 -1.688937e+01 0.000000e+00
         vertex -1.463125e+01 -1.709202e+01 2.075165e+00
         vertex -1.392803e+01 -1.639891e+01 2.172918e+00
      endloop
   endfacet
   facet normal 3.506590e-02 9.993746e-01 -4.557105e-03
      outer loop
         vertex -1.564421e+01 -1.747455e+01 0.000000e+00
         vertex -1.657630e+01 -1.743267e+01 2.013292e+00
         vertex -1.559577e+01 -1.746710e+01 2.006538e+00
      endloop
   endfacet
   facet normal 7.186475e-01 6.953711e-01 2.189020e-03
      outer loop
         vertex -1.810313e+01 -1.635160e+01 0.000000e+00
         vertex -1.808958e+01 -1.637246e+01 2.175892e+00
         vertex -1.743960e+01 -1.704391e+01 2.083174e+00
      endloop
   endfacet
   facet normal 9.947234e-01 1.025930e-01 0.000000e+00
      outer loop
         vertex -1.850000e+01 -1.500000e+01 0.000000e+00
         vertex -1.850000e+01 -1.500000e+01 2.252551e+00
         vertex -1.844737e+01 -1.551027e+01 2.241926e+00
      endloop
   endfacet
   facet normal 6.542681e-01 7.550657e-01 4.253364e-02
      outer loop
         vertex -1.743960e+01 -1.704391e+01 2.083174e+00
         vertex -1.703854e+01 -1.727408e+01 0.000000e+00
         vertex -1.810313e+01 -1.635160e+01 0.000000e+00
      endloop
   endfacet
   facet normal -4.151598e-01 9.090721e-01 3.507462e-02
      outer loop
         vertex -1.463125e+01 -1.709202e+01 2.075165e+00
         vertex -1.436285e+01 -1.688937e+01 0.000000e+00
         vertex -1.564421e+01 -1.747455e+01 0.000000e+00
      endloop
   endfacet
   facet normal -9.991039e-01 0.000000e+00 4.232595e-02
      outer loop
         vertex -1.350589e+01 -1.482846e+01 2.251350e+00
         vertex -1.360127e+01 -1.429567e+01 0.000000e+00
         vertex -1.360127e+01 -1.570433e+01 0.000000e+00
      endloop
   endfacet
   facet normal -4.151240e-01 -9.089935e-01 3.745462e-02
      outer loop
         vertex -1.529645e+01 -1.260104e+01 2.019815e+00
         vertex -1.564421e+01 -1.252545e+01 0.000000e+00
         vertex -1.436285e+01 -1.311063e+01 0.000000e+00
      endloop
   endfacet
   facet normal 6.544342e-01 -7.552567e-01 3.609988e-02
      outer loop
         vertex -1.788200e+01 -1.335438e+01 2.142490e+00
         vertex -1.810313e+01 -1.364840e+01 0.000000e+00
         vertex -1.703854e+01 -1.272592e+01 0.000000e+00
      endloop
   endfacet
   facet normal 9.585852e-01 -2.814659e-01 4.349108e-02
      outer loop
         vertex -1.810313e+01 -1.364840e+01 0.000000e+00
         vertex -1.835228e+01 -1.415336e+01 2.223323e+00
         vertex -1.850000e+01 -1.500000e+01 0.000000e+00
      endloop
   endfacet
   facet normal -4.672199e-01 -8.841127e-01 7.097341e-03
      outer loop
         vertex -1.529645e+01 -1.260104e+01 2.019815e+00
         vertex -1.436285e+01 -1.311063e+01 0.000000e+00
         vertex -1.441660e+01 -1.306536e+01 2.100692e+00
      endloop
   endfacet
   facet normal -8.403529e-01 5.400620e-01 4.625985e-02
      outer loop
         vertex -1.360127e+01 -1.570433e+01 0.000000e+00
         vertex -1.436285e+01 -1.688937e+01 0.000000e+00
         vertex -1.392803e+01 -1.639891e+01 2.172918e+00
      endloop
   endfacet
   facet normal 9.235718e-01 3.834199e-01 -2.076733e-03
      outer loop
         vertex -1.844737e+01 -1.551027e+01 2.241926e+00
         vertex -1.808958e+01 -1.637246e+01 2.175892e+00
         vertex -1.810313e+01 -1.635160e+01 0.000000e+00
      endloop
   endfacet
   facet normal -3.627656e-01 9.318654e-01 5.297442e-03
      outer loop
         vertex -1.559577e+01 -1.746710e+01 2.006538e+00
         vertex -1.463125e+01 -1.709202e+01 2.075165e+00
         vertex -1.564421e+01 -1.747455e+01 0.000000e+00
      endloop
   endfacet
   facet normal -9.202452e-01 3.911140e-01 -1.336618e-02
      outer loop
         vertex -1.355388e+01 -1.551622e+01 2.241677e+00
         vertex -1.360127e+01 -1.570433e+01 0.000000e+00
         vertex -1.392803e+01 -1.639891e+01 2.172918e+00
      endloop
   endfacet
   facet normal 8.608004e-01 -5.085861e-01 -1.905061e-02
      outer loop
         vertex -1.810313e+01 -1.364840e+01 0.000000e+00
         vertex -1.788200e+01 -1.335438e+01 2.142490e+00
         vertex -1.835228e+01 -1.415336e+01 2.223323e+00
      endloop
   endfacet
   facet normal -9.617949e-01 -2.727345e-01 -2.379856e-02
      outer loop
         vertex -1.360127e+01 -1.429567e+01 0.000000e+00
         vertex -1.350589e+01 -1.482846e+01 2.251350e+00
         vertex -1.378422e+01 -1.384228e+01 2.197954e+00
      endloop
   endfacet
   facet normal 9.586639e-01 2.814888e-01 4.156353e-02
      outer loop
         vertex -1.844737e+01 -1.551027e+01 2.241926e+00
         vertex -1.810313e+01 -1.635160e+01 0.000000e+00
         vertex -1.850000e+01 -1.500000e+01 0.000000e+00
      endloop
   endfacet
   facet normal -8.405301e-01 -5.401759e-01 4.146298e-02
      outer loop
         vertex -1.378422e+01 -1.384228e+01 2.197954e+00
         vertex -1.436285e+01 -1.311063e+01 0.000000e+00
         vertex -1.360127e+01 -1.429567e+01 0.000000e+00
      endloop
   endfacet
   facet normal 2.826985e-01 -9.591595e-01 -9.730028e-03
      outer loop
         vertex -1.624340e+01 -1.251188e+01 2.002370e+00
         vertex -1.714727e+01 -1.277879e+01 2.052761e+00
         vertex -1.703854e+01 -1.272592e+01 0.000000e+00
      endloop
   endfacet
   facet normal 4.090230e-01 9.122576e-01 -2.205017e-02
      outer loop
         vertex -1.657630e+01 -1.743267e+01 2.013292e+00
         vertex -1.703854e+01 -1.727408e+01 0.000000e+00
         vertex -1.743960e+01 -1.704391e+01 2.083174e+00
      endloop
   endfacet
   facet normal 1.421691e-01 9.888077e-01 4.524786e-02
      outer loop
         vertex -1.657630e+01 -1.743267e+01 2.013292e+00
         vertex -1.564421e+01 -1.747455e+01 0.000000e+00
         vertex -1.703854e+01 -1.727408e+01 0.000000e+00
      endloop
   endfacet
   facet normal 1.421423e-01 -9.886211e-01 4.923387e-02
      outer loop
         vertex -1.703854e+01 -1.272592e+01 0.000000e+00
         vertex -1.564421e+01 -1.252545e+01 0.000000e+00
         vertex -1.624340e+01 -1.251188e+01 2.002370e+00
      endloop
   endfacet
   facet normal -0.000000e+00 -1.000000e+00 -0.000000e+00
      outer loop
         vertex -6.123234e-15 -5.000000e+01 0.000000e+00
         vertex -7.962267e-15 -5.000000e+01 5.000000e+00
         vertex -7.875962e+00 -5.000000e+01 5.000000e+00
      endloop
   endfacet
   facet normal 0.000000e+00 -1.000000e+00 0.000000e+00
      outer loop
         vertex -1.032048e+01 -5.000000e+01 3.364784e+00
         vertex -1.307940e+01 -5.000000e+01 2.345984e+00
         vertex -6.123234e-15 -5.000000e+01 0.000000e+00
      endloop
   endfacet
   facet normal 0.000000e+00 -1.000000e+00 -0.000000e+00
      outer loop
         vertex -1.600000e+01 -5.000000e+01 2.000000e+00
         vertex -1.892060e+01 -5.000000e+01 2.345984e+00
         vertex -3.200000e+01 -5.000000e+01 0.000000e+00
      endloop
   endfacet
   facet normal 0.000000e+00 -1.000000e+00 -0.000000e+00
      outer loop
         vertex -2.167952e+01 -5.000000e+01 3.364784e+00
         vertex -2.412404e+01 -5.000000e+01 5.000000e+00
         vertex -3.200000e+01 -5.000000e+01 0.000000e+00
      endloop
   endfacet
   facet normal 0.000000e+00 -1.000000e+00 0.000000e+00
      outer loop
         vertex -3.200000e+01 -5.000000e+01 5.000000e+00
         vertex -3.200000e+01 -5.000000e+01 0.000000e+00
         vertex -2.412404e+01 -5.000000e+01 5.000000e+00
      endloop
   endfacet
   facet normal 0.000000e+00 -1.000000e+00 0.000000e+00
      outer loop
         vertex -1.032048e+01 -5.000000e+01 3.364784e+00
         vertex -6.123234e-15 -5.000000e+01 0.000000e+00
         vertex -7.875962e+00 -5.000000e+01 5.000000e+00
      endloop
   endfacet
   facet normal 0.000000e+00 -1.000000e+00 0.000000e+00
      outer loop
         vertex -2.167952e+01 -5.000000e+01 3.364784e+00
         vertex -3.200000e+01 -5.000000e+01 0.000000e+00
         vertex -1.892060e+01 -5.000000e+01 2.345984e+00
      endloop
   endfacet
   facet normal 0.000000e+00 -1.000000e+00 0.000000e+00
      outer loop
         vertex -1.307940e+01 -5.000000e+01 2.345984e+00
         vertex -1.600000e+01 -5.000000e+01 2.000000e+00
         vertex -6.123234e-15 -5.000000e+01 0.000000e+00
      endloop
   endfacet
   facet normal 0.000000e+00 -1.000000e+00 0.000000e+00
      outer loop
         vertex -1.600000e+01 -5.000000e+01 2.000000e+00
         vertex -3.200000e+01 -5.000000e+01 0.000000e+00
         vertex -6.123234e-15 -5.000000e+01 0.000000e+00
      endloop
   endfacet
   facet normal 0.000000e+00 0.000000e+00 1.000000e+00
      outer loop
         vertex -4.338096e+00 5.312636e-16 1.000000e+01
         vertex -4.338096e+00 -4.500000e+01 1.000000e+01
         vertex -7.226654e-15 -4.500000e+01 1.000000e+01
      endloop
   endfacet
   facet normal 0.000000e+00 0.000000e+00 1.000000e+00
      outer loop
         vertex 0.000000e+00 0.000000e+00 1.000000e+01
         vertex -4.338096e+00 5.312636e-16 1.000000e+01
         vertex -7.226654e-15 -4.500000e+01 1.000000e+01
      endloop
   endfacet
   facet normal 1.224647e-16 1.000000e+00 4.898587e-16
      outer loop
         vertex -9.000000e+00 1.102182e-15 0.000000e+00
         vertex -2.300000e+01 2.816688e-15 0.000000e+00
         vertex -1.600000e+01 9.797175e-16 2.000000e+00
      endloop
   endfacet
   facet normal 1.224647e-16 1.000000e+00 0.000000e+00
      outer loop
         vertex -3.200000e+01 3.918870e-15 9.000000e+00
         vertex -3.200000e+01 3.918870e-15 1.000000e+01
         vertex -2.766190e+01 3.387606e-15 1.000000e+01
      endloop
   endfacet
   facet normal 5.197467e-16 1.000000e+00 4.095296e-16
      outer loop
         vertex -2.625438e+01 1.607617e-15 7.351727e+00
         vertex -2.425656e+01 1.485286e-15 5.114944e+00
         vertex -3.200000e+01 3.918870e-15 9.000000e+00
      endloop
   endfacet
   facet normal 1.982644e-16 1.000000e+00 3.632211e-16
      outer loop
         vertex -2.178345e+01 1.333852e-15 3.418407e+00
         vertex -1.897742e+01 1.162032e-15 2.359779e+00
         vertex -2.300000e+01 2.816688e-15 0.000000e+00
      endloop
   endfacet
   facet normal 3.783282e-17 1.000000e+00 1.936472e-16
      outer loop
         vertex -1.600000e+01 9.797175e-16 2.000000e+00
         vertex -1.302258e+01 7.974029e-16 2.359779e+00
         vertex -9.000000e+00 1.102182e-15 0.000000e+00
      endloop
   endfacet
   facet normal -2.765777e-17 1.000000e+00 1.295784e-16
      outer loop
         vertex -1.021655e+01 6.255832e-16 3.418407e+00
         vertex -7.743444e+00 4.741492e-16 5.114944e+00
         vertex -9.000000e+00 1.102182e-15 0.000000e+00
      endloop
   endfacet
   facet normal 9.518348e-17 1.000000e+00 -1.183485e-16
      outer loop
         vertex -5.745625e+00 3.518181e-16 7.351727e+00
         vertex -4.338096e+00 5.312636e-16 1.000000e+01
         vertex 0.000000e+00 0.000000e+00 9.000000e+00
      endloop
   endfacet
   facet normal 1.224647e-16 1.000000e+00 -0.000000e+00
      outer loop
         vertex 0.000000e+00 0.000000e+00 1.000000e+01
         vertex 0.000000e+00 0.000000e+00 9.000000e+00
         vertex -4.338096e+00 5.312636e-16 1.000000e+01
      endloop
   endfacet
   facet normal 2.471249e-16 1.000000e+00 -5.407881e-16
      outer loop
         vertex -3.200000e+01 3.918870e-15 9.000000e+00
         vertex -2.766190e+01 3.387606e-15 1.000000e+01
         vertex -2.625438e+01 1.607617e-15 7.351727e+00
      endloop
   endfacet
   facet normal 1.210311e-16 1.000000e+00 4.948762e-16
      outer loop
         vertex -2.300000e+01 2.816688e-15 0.000000e+00
         vertex -1.897742e+01 1.162032e-15 2.359779e+00
         vertex -1.600000e+01 9.797175e-16 2.000000e+00
      endloop
   endfacet
   facet normal 6.123233e-17 1.000000e+00 3.006166e-23
      outer loop
         vertex -5.745625e+00 3.518181e-16 7.351727e+00
         vertex 0.000000e+00 0.000000e+00 9.000000e+00
         vertex -7.743444e+00 4.741492e-16 5.114944e+00
      endloop
   endfacet
   facet normal 5.074145e-16 1.000000e+00 3.849498e-16
      outer loop
         vertex -2.300000e+01 2.816688e-15 0.000000e+00
         vertex -3.200000e+01 3.918870e-15 9.000000e+00
         vertex -2.425656e+01 1.485286e-15 5.114944e+00
      endloop
   endfacet
   facet normal 7.611093e-18 1.000000e+00 1.421300e-16
      outer loop
         vertex -1.302258e+01 7.974029e-16 2.359779e+00
         vertex -1.021655e+01 6.255832e-16 3.418407e+00
         vertex -9.000000e+00 1.102182e-15 0.000000e+00
      endloop
   endfacet
   facet normal 2.883960e-16 1.000000e+00 3.311449e-16
      outer loop
         vertex -2.178345e+01 1.333852e-15 3.418407e+00
         vertex -2.300000e+01 2.816688e-15 0.000000e+00
         vertex -2.425656e+01 1.485286e-15 5.114944e+00
      endloop
   endfacet
   facet normal -4.232247e-19 1.000000e+00 1.228879e-16
      outer loop
         vertex 0.000000e+00 0.000000e+00 9.000000e+00
         vertex -9.000000e+00 1.102182e-15 0.000000e+00
         vertex -7.743444e+00 4.741492e-16 5.114944e+00
      endloop
   endfacet
   facet normal 0.000000e+00 0.000000e+00 1.000000e+00
      outer loop
         vertex -3.200000e+01 3.918870e-15 1.000000e+01
         vertex -3.200000e+01 -4.500000e+01 1.000000e+01
         vertex -2.766190e+01 3.387606e-15 1.000000e+01
      endloop
   endfacet
   facet normal 0.000000e+00 0.000000e+00 1.000000e+00
      outer loop
         vertex -2.766190e+01 -4.500000e+01 1.000000e+01
         vertex -2.766190e+01 3.387606e-15 1.000000e+01
         vertex -3.200000e+01 -4.500000e+01 1.000000e+01
      endloop
   endfacet
   facet normal -7.071068e-01 0.000000e+00 -7.071068e-01
      outer loop
         vertex -2.300000e+01 2.816688e-15 0.000000e+00
         vertex -3.200000e+01 -4.000000e+01 9.000000e+00
         vertex -3.200000e+01 3.918870e-15 9.000000e+00
      endloop
   endfacet
   facet normal -7.071068e-01 4.844762e-17 -7.071068e-01
      outer loop
         vertex -3.200000e+01 -4.000000e+01 9.000000e+00
         vertex -2.300000e+01 2.816688e-15 0.000000e+00
         vertex -2.300000e+01 -4.000000e+01 -2.740612e-15
      endloop
   endfacet
   facet normal 7.071068e-01 9.742006e-18 -7.071068e-01
      outer loop
         vertex -5.005589e-15 -4.000000e+01 9.000000e+00
         vertex -9.000000e+00 -4.000000e+01 -5.510911e-16
         vertex -9.000000e+00 1.102182e-15 0.000000e+00
      endloop
   endfacet
   facet normal 7.071068e-01 -8.373826e-17 -7.071068e-01
      outer loop
         vertex -5.005589e-15 -4.000000e+01 9.000000e+00
         vertex -9.000000e+00 1.102182e-15 0.000000e+00
         vertex 0.000000e+00 0.000000e+00 9.000000e+00
      endloop
   endfacet
   facet normal 0.000000e+00 1.000000e+00 0.000000e+00
      outer loop
         vertex -9.000000e+00 -4.000000e+01 -5.510911e-16
         vertex -5.005589e-15 -4.000000e+01 9.000000e+00
         vertex -4.898587e-15 -4.000000e+01 0.000000e+00
      endloop
   endfacet
   facet normal 1.000000e+00 -1.605923e-16 1.418103e-15
      outer loop
         vertex 0.000000e+00 0.000000e+00 1.000000e+01
         vertex -7.226654e-15 -4.500000e+01 1.000000e+01
         vertex -5.005589e-15 -4.000000e+01 9.000000e+00
      endloop
   endfacet
   facet normal 1.000000e+00 -2.246380e-15 -7.520182e-18
      outer loop
         vertex -6.425332e-15 -4.691342e+01 9.619398e+00
         vertex -1.007737e-14 -4.853553e+01 8.535534e+00
         vertex -5.511839e-15 -4.650000e+01 7.598076e+00
      endloop
   endfacet
   facet normal 1.000000e+00 -1.179290e-15 -4.820692e-16
      outer loop
         vertex -6.591026e-15 -4.961940e+01 6.913417e+00
         vertex -7.962267e-15 -5.000000e+01 5.000000e+00
         vertex -5.603687e-15 -4.800000e+01 5.000000e+00
      endloop
   endfacet
   facet normal 1.000000e+00 -1.224647e-16 -4.545994e-17
      outer loop
         vertex -6.123234e-15 -5.000000e+01 0.000000e+00
         vertex -4.898587e-15 -4.000000e+01 0.000000e+00
         vertex -5.419991e-15 -4.500000e+01 2.000000e+00
      endloop
   endfacet
   facet normal 1.000000e+00 -1.251397e-16 0.000000e+00
      outer loop
         vertex -5.005589e-15 -4.000000e+01 9.000000e+00
         vertex 0.000000e+00 0.000000e+00 9.000000e+00
         vertex 0.000000e+00 0.000000e+00 1.000000e+01
      endloop
   endfacet
   facet normal 1.000000e+00 -6.086164e-17 6.175201e-17
      outer loop
         vertex -5.329071e-15 -4.200000e+01 5.000000e+00
         vertex -5.260904e-15 -4.240192e+01 3.500000e+00
         vertex -4.898587e-15 -4.000000e+01 0.000000e+00
      endloop
   endfacet
   facet normal 1.000000e+00 -7.850125e-17 6.444859e-17
      outer loop
         vertex -5.328142e-15 -4.350000e+01 2.401924e+00
         vertex -5.419991e-15 -4.500000e+01 2.000000e+00
         vertex -4.898587e-15 -4.000000e+01 0.000000e+00
      endloop
   endfacet
   facet normal 1.000000e+00 -1.285124e-16 -6.727993e-17
      outer loop
         vertex -5.511839e-15 -4.650000e+01 2.401924e+00
         vertex -5.579077e-15 -4.759808e+01 3.500000e+00
         vertex -6.123234e-15 -5.000000e+01 0.000000e+00
      endloop
   endfacet
   facet normal 1.000000e+00 -4.778077e-16 1.116213e-16
      outer loop
         vertex -5.603687e-15 -4.800000e+01 5.000000e+00
         vertex -5.579077e-15 -4.759808e+01 6.500000e+00
         vertex -6.591026e-15 -4.961940e+01 6.913417e+00
      endloop
   endfacet
   facet normal 1.000000e+00 -1.728532e-16 4.165751e-16
      outer loop
         vertex -5.511839e-15 -4.650000e+01 7.598076e+00
         vertex -5.419991e-15 -4.500000e+01 8.000000e+00
         vertex -6.425332e-15 -4.691342e+01 9.619398e+00
      endloop
   endfacet
   facet normal 1.000000e+00 -8.331349e-17 -2.208101e-17
      outer loop
         vertex -5.328142e-15 -4.350000e+01 7.598076e+00
         vertex -5.260904e-15 -4.240192e+01 6.500000e+00
         vertex -5.005589e-15 -4.000000e+01 9.000000e+00
      endloop
   endfacet
   facet normal 1.000000e+00 -1.554978e-15 1.493745e-15
      outer loop
         vertex -5.511839e-15 -4.650000e+01 7.598076e+00
         vertex -1.007737e-14 -4.853553e+01 8.535534e+00
         vertex -5.579077e-15 -4.759808e+01 6.500000e+00
      endloop
   endfacet
   facet normal 1.000000e+00 -1.855189e-16 1.188910e-17
      outer loop
         vertex -5.329071e-15 -4.200000e+01 5.000000e+00
         vertex -4.898587e-15 -4.000000e+01 0.000000e+00
         vertex -5.005589e-15 -4.000000e+01 9.000000e+00
      endloop
   endfacet
   facet normal 1.000000e+00 -9.309033e-17 -1.188958e-16
      outer loop
         vertex -5.511839e-15 -4.650000e+01 2.401924e+00
         vertex -6.123234e-15 -5.000000e+01 0.000000e+00
         vertex -5.419991e-15 -4.500000e+01 2.000000e+00
      endloop
   endfacet
   facet normal 1.000000e+00 -3.269687e-16 5.862212e-16
      outer loop
         vertex -5.328142e-15 -4.350000e+01 7.598076e+00
         vertex -5.005589e-15 -4.000000e+01 9.000000e+00
         vertex -7.226654e-15 -4.500000e+01 1.000000e+01
      endloop
   endfacet
   facet normal 1.000000e+00 -4.613090e-17 -5.780491e-17
      outer loop
         vertex -5.329071e-15 -4.200000e+01 5.000000e+00
         vertex -5.005589e-15 -4.000000e+01 9.000000e+00
         vertex -5.260904e-15 -4.240192e+01 6.500000e+00
      endloop
   endfacet
   facet normal 1.000000e+00 2.391073e-16 9.033316e-16
      outer loop
         vertex -7.226654e-15 -4.500000e+01 1.000000e+01
         vertex -6.425332e-15 -4.691342e+01 9.619398e+00
         vertex -5.419991e-15 -4.500000e+01 8.000000e+00
      endloop
   endfacet
   facet normal 1.000000e+00 -7.625055e-16 3.678067e-16
      outer loop
         vertex -7.962267e-15 -5.000000e+01 5.000000e+00
         vertex -6.123234e-15 -5.000000e+01 0.000000e+00
         vertex -5.579077e-15 -4.759808e+01 3.500000e+00
      endloop
   endfacet
   facet normal 1.000000e+00 -1.179290e-15 -2.995830e-16
      outer loop
         vertex -5.579077e-15 -4.759808e+01 3.500000e+00
         vertex -5.603687e-15 -4.800000e+01 5.000000e+00
         vertex -7.962267e-15 -5.000000e+01 5.000000e+00
      endloop
   endfacet
   facet normal 1.000000e+00 -9.770216e-17 3.646968e-17
      outer loop
         vertex -4.898587e-15 -4.000000e+01 0.000000e+00
         vertex -5.260904e-15 -4.240192e+01 3.500000e+00
         vertex -5.328142e-15 -4.350000e+01 2.401924e+00
      endloop
   endfacet
   facet normal 1.000000e+00 1.808146e-16 9.033316e-16
      outer loop
         vertex -5.328142e-15 -4.350000e+01 7.598076e+00
         vertex -7.226654e-15 -4.500000e+01 1.000000e+01
         vertex -5.419991e-15 -4.500000e+01 8.000000e+00
      endloop
   endfacet
   facet normal 1.000000e+00 -5.371278e-17 2.185147e-15
      outer loop
         vertex -1.007737e-14 -4.853553e+01 8.535534e+00
         vertex -6.591026e-15 -4.961940e+01 6.913417e+00
         vertex -5.579077e-15 -4.759808e+01 6.500000e+00
      endloop
   endfacet
   facet normal -1.000000e+00 0.000000e+00 0.000000e+00
      outer loop
         vertex -3.200000e+01 -5.000000e+01 0.000000e+00
         vertex -3.200000e+01 -5.000000e+01 5.000000e+00
         vertex -3.200000e+01 -4.759808e+01 3.500000e+00
      endloop
   endfacet
   facet normal -1.000000e+00 0.000000e+00 -0.000000e+00
      outer loop
         vertex -3.200000e+01 -4.961940e+01 6.913417e+00
         vertex -3.200000e+01 -4.853553e+01 8.535534e+00
         vertex -3.200000e+01 -4.759808e+01 6.500000e+00
      endloop
   endfacet
   facet normal -1.000000e+00 0.000000e+00 -0.000000e+00
      outer loop
         vertex -3.200000e+01 -4.691342e+01 9.619398e+00
         vertex -3.200000e+01 -4.500000e+01 1.000000e+01
         vertex -3.200000e+01 -4.500000e+01 8.000000e+00
      endloop
   endfacet
   facet normal -1.000000e+00 0.000000e+00 0.000000e+00
      outer loop
         vertex -3.200000e+01 3.918870e-15 1.000000e+01
         vertex -3.200000e+01 3.918870e-15 9.000000e+00
         vertex -3.200000e+01 -4.000000e+01 9.000000e+00
      endloop
   endfacet
   facet normal -1.000000e+00 0.000000e+00 0.000000e+00
      outer loop
         vertex -3.200000e+01 -4.000000e+01 0.000000e+00
         vertex -3.200000e+01 -5.000000e+01 0.000000e+00
         vertex -3.200000e+01 -4.500000e+01 2.000000e+00
      endloop
   endfacet
   facet normal -1.000000e+00 0.000000e+00 0.000000e+00
      outer loop
         vertex -3.200000e+01 -4.800000e+01 5.000000e+00
         vertex -3.200000e+01 -4.759808e+01 3.500000e+00
         vertex -3.200000e+01 -5.000000e+01 5.000000e+00
      endloop
   endfacet
   facet normal -1.000000e+00 -0.000000e+00 0.000000e+00
      outer loop
         vertex -3.200000e+01 -4.650000e+01 2.401924e+00
         vertex -3.200000e+01 -4.500000e+01 2.000000e+00
         vertex -3.200000e+01 -5.000000e+01 0.000000e+00
      endloop
   endfacet
   facet normal -1.000000e+00 0.000000e+00 -0.000000e+00
      outer loop
         vertex -3.200000e+01 -4.350000e+01 2.401924e+00
         vertex -3.200000e+01 -4.240192e+01 3.500000e+00
         vertex -3.200000e+01 -4.000000e+01 0.000000e+00
      endloop
   endfacet
   facet normal -1.000000e+00 0.000000e+00 0.000000e+00
      outer loop
         vertex -3.200000e+01 -4.200000e+01 5.000000e+00
         vertex -3.200000e+01 -4.240192e+01 6.500000e+00
         vertex -3.200000e+01 -4.000000e+01 9.000000e+00
      endloop
   endfacet
   facet normal -1.000000e+00 0.000000e+00 0.000000e+00
      outer loop
         vertex -3.200000e+01 -4.350000e+01 7.598076e+00
         vertex -3.200000e+01 -4.500000e+01 8.000000e+00
         vertex -3.200000e+01 -4.500000e+01 1.000000e+01
      endloop
   endfacet
   facet normal -1.000000e+00 0.000000e+00 0.000000e+00
      outer loop
         vertex -3.200000e+01 -4.650000e+01 7.598076e+00
         vertex -3.200000e+01 -4.759808e+01 6.500000e+00
         vertex -3.200000e+01 -4.853553e+01 8.535534e+00
      endloop
   endfacet
   facet normal -1.000000e+00 -0.000000e+00 0.000000e+00
      outer loop
         vertex -3.200000e+01 -4.961940e+01 6.913417e+00
         vertex -3.200000e+01 -4.759808e+01 6.500000e+00
         vertex -3.200000e+01 -4.800000e+01 5.000000e+00
      endloop
   endfacet
   facet normal -1.000000e+00 0.000000e+00 0.000000e+00
      outer loop
         vertex -3.200000e+01 -4.000000e+01 0.000000e+00
         vertex -3.200000e+01 -4.500000e+01 2.000000e+00
         vertex -3.200000e+01 -4.350000e+01 2.401924e+00
      endloop
   endfacet
   facet normal -1.000000e+00 0.000000e+00 0.000000e+00
      outer loop
         vertex -3.200000e+01 -4.000000e+01 0.000000e+00
         vertex -3.200000e+01 -4.240192e+01 3.500000e+00
         vertex -3.200000e+01 -4.200000e+01 5.000000e+00
      endloop
   endfacet
   facet normal -1.000000e+00 0.000000e+00 0.000000e+00
      outer loop
         vertex -3.200000e+01 -4.350000e+01 7.598076e+00
         vertex -3.200000e+01 -4.500000e+01 1.000000e+01
         vertex -3.200000e+01 -4.000000e+01 9.000000e+00
      endloop
   endfacet
   facet normal -1.000000e+00 0.000000e+00 0.000000e+00
      outer loop
         vertex -3.200000e+01 -4.961940e+01 6.913417e+00
         vertex -3.200000e+01 -4.800000e+01 5.000000e+00
         vertex -3.200000e+01 -5.000000e+01 5.000000e+00
      endloop
   endfacet
   facet normal -1.000000e+00 0.000000e+00 -0.000000e+00
      outer loop
         vertex -3.200000e+01 -4.853553e+01 8.535534e+00
         vertex -3.200000e+01 -4.691342e+01 9.619398e+00
         vertex -3.200000e+01 -4.650000e+01 7.598076e+00
      endloop
   endfacet
   facet normal -1.000000e+00 0.000000e+00 0.000000e+00
      outer loop
         vertex -3.200000e+01 -4.000000e+01 9.000000e+00
         vertex -3.200000e+01 -4.000000e+01 0.000000e+00
         vertex -3.200000e+01 -4.200000e+01 5.000000e+00
      endloop
   endfacet
   facet normal -1.000000e+00 0.000000e+00 0.000000e+00
      outer loop
         vertex -3.200000e+01 -4.240192e+01 6.500000e+00
         vertex -3.200000e+01 -4.350000e+01 7.598076e+00
         vertex -3.200000e+01 -4.000000e+01 9.000000e+00
      endloop
   endfacet
   facet normal -1.000000e+00 0.000000e+00 -0.000000e+00
      outer loop
         vertex -3.200000e+01 -5.000000e+01 0.000000e+00
         vertex -3.200000e+01 -4.759808e+01 3.500000e+00
         vertex -3.200000e+01 -4.650000e+01 2.401924e+00
      endloop
   endfacet
   facet normal -1.000000e+00 0.000000e+00 0.000000e+00
      outer loop
         vertex -3.200000e+01 -4.000000e+01 9.000000e+00
         vertex -3.200000e+01 -4.500000e+01 1.000000e+01
         vertex -3.200000e+01 3.918870e-15 1.000000e+01
      endloop
   endfacet
   facet normal -1.000000e+00 0.000000e+00 0.000000e+00
      outer loop
         vertex -3.200000e+01 -4.500000e+01 8.000000e+00
         vertex -3.200000e+01 -4.650000e+01 7.598076e+00
         vertex -3.200000e+01 -4.691342e+01 9.619398e+00
      endloop
   endfacet
   facet normal -0.000000e+00 1.000000e+00 0.000000e+00
      outer loop
         vertex -2.300000e+01 -4.000000e+01 -2.740612e-15
         vertex -3.200000e+01 -4.000000e+01 0.000000e+00
         vertex -3.200000e+01 -4.000000e+01 9.000000e+00
      endloop
   endfacet
   facet normal 0.000000e+00 -9.659258e-01 -2.588193e-01
      outer loop
         vertex -4.500000e+00 -4.240192e+01 6.500000e+00
         vertex -4.500000e+00 -4.200000e+01 5.000000e+00
         vertex -5.329071e-15 -4.200000e+01 5.000000e+00
      endloop
   endfacet
   facet normal 0.000000e+00 -2.588190e-01 -9.659258e-01
      outer loop
         vertex -5.419991e-15 -4.500000e+01 8.000000e+00
         vertex -4.500000e+00 -4.500000e+01 8.000000e+00
         vertex -4.500000e+00 -4.350000e+01 7.598076e+00
      endloop
   endfacet
   facet normal 0.000000e+00 7.071069e-01 -7.071066e-01
      outer loop
         vertex -5.579077e-15 -4.759808e+01 6.500000e+00
         vertex -4.500000e+00 -4.759808e+01 6.500000e+00
         vertex -4.500000e+00 -4.650000e+01 7.598076e+00
      endloop
   endfacet
   facet normal -0.000000e+00 9.659258e-01 2.588193e-01
      outer loop
         vertex -5.579077e-15 -4.759808e+01 3.500000e+00
         vertex -4.500000e+00 -4.759808e+01 3.500000e+00
         vertex -4.500000e+00 -4.800000e+01 5.000000e+00
      endloop
   endfacet
   facet normal -0.000000e+00 2.588191e-01 9.659258e-01
      outer loop
         vertex -5.419991e-15 -4.500000e+01 2.000000e+00
         vertex -4.500000e+00 -4.500000e+01 2.000000e+00
         vertex -4.500000e+00 -4.650000e+01 2.401924e+00
      endloop
   endfacet
   facet normal 0.000000e+00 -7.071069e-01 7.071067e-01
      outer loop
         vertex -5.260904e-15 -4.240192e+01 3.500000e+00
         vertex -4.500000e+00 -4.240192e+01 3.500000e+00
         vertex -4.500000e+00 -4.350000e+01 2.401924e+00
      endloop
   endfacet
   facet normal 0.000000e+00 -9.659258e-01 2.588193e-01
      outer loop
         vertex -4.500000e+00 -4.240192e+01 3.500000e+00
         vertex -5.329071e-15 -4.200000e+01 5.000000e+00
         vertex -4.500000e+00 -4.200000e+01 5.000000e+00
      endloop
   endfacet
   facet normal 0.000000e+00 -2.588191e-01 9.659258e-01
      outer loop
         vertex -4.500000e+00 -4.500000e+01 2.000000e+00
         vertex -5.419991e-15 -4.500000e+01 2.000000e+00
         vertex -5.328142e-15 -4.350000e+01 2.401924e+00
      endloop
   endfacet
   facet normal 0.000000e+00 7.071069e-01 7.071067e-01
      outer loop
         vertex -4.500000e+00 -4.759808e+01 3.500000e+00
         vertex -5.579077e-15 -4.759808e+01 3.500000e+00
         vertex -5.511839e-15 -4.650000e+01 2.401924e+00
      endloop
   endfacet
   facet normal 0.000000e+00 9.659258e-01 -2.588193e-01
      outer loop
         vertex -4.500000e+00 -4.759808e+01 6.500000e+00
         vertex -5.579077e-15 -4.759808e+01 6.500000e+00
         vertex -5.603687e-15 -4.800000e+01 5.000000e+00
      endloop
   endfacet
   facet normal 0.000000e+00 2.588190e-01 -9.659258e-01
      outer loop
         vertex -4.500000e+00 -4.500000e+01 8.000000e+00
         vertex -5.419991e-15 -4.500000e+01 8.000000e+00
         vertex -5.511839e-15 -4.650000e+01 7.598076e+00
      endloop
   endfacet
   facet normal -0.000000e+00 -7.071069e-01 -7.071066e-01
      outer loop
         vertex -4.500000e+00 -4.240192e+01 6.500000e+00
         vertex -5.260904e-15 -4.240192e+01 6.500000e+00
         vertex -5.328142e-15 -4.350000e+01 7.598076e+00
      endloop
   endfacet
   facet normal 0.000000e+00 -9.659258e-01 -2.588193e-01
      outer loop
         vertex -5.260904e-15 -4.240192e+01 6.500000e+00
         vertex -4.500000e+00 -4.240192e+01 6.500000e+00
         vertex -5.329071e-15 -4.200000e+01 5.000000e+00
      endloop
   endfacet
   facet normal 0.000000e+00 9.659258e-01 2.588193e-01
      outer loop
         vertex -5.603687e-15 -4.800000e+01 5.000000e+00
         vertex -5.579077e-15 -4.759808e+01 3.500000e+00
         vertex -4.500000e+00 -4.800000e+01 5.000000e+00
      endloop
   endfacet
   facet normal 0.000000e+00 -9.659258e-01 2.588193e-01
      outer loop
         vertex -5.329071e-15 -4.200000e+01 5.000000e+00
         vertex -4.500000e+00 -4.240192e+01 3.500000e+00
         vertex -5.260904e-15 -4.240192e+01 3.500000e+00
      endloop
   endfacet
   facet normal 0.000000e+00 9.659258e-01 -2.588193e-01
      outer loop
         vertex -4.500000e+00 -4.800000e+01 5.000000e+00
         vertex -4.500000e+00 -4.759808e+01 6.500000e+00
         vertex -5.603687e-15 -4.800000e+01 5.000000e+00
      endloop
   endfacet
   facet normal 0.000000e+00 -7.071069e-01 -7.071066e-01
      outer loop
         vertex -5.328142e-15 -4.350000e+01 7.598076e+00
         vertex -4.500000e+00 -4.350000e+01 7.598076e+00
         vertex -4.500000e+00 -4.240192e+01 6.500000e+00
      endloop
   endfacet
   facet normal -0.000000e+00 7.071069e-01 7.071067e-01
      outer loop
         vertex -5.511839e-15 -4.650000e+01 2.401924e+00
         vertex -4.500000e+00 -4.650000e+01 2.401924e+00
         vertex -4.500000e+00 -4.759808e+01 3.500000e+00
      endloop
   endfacet
   facet normal 0.000000e+00 -7.071069e-01 7.071067e-01
      outer loop
         vertex -4.500000e+00 -4.350000e+01 2.401924e+00
         vertex -5.328142e-15 -4.350000e+01 2.401924e+00
         vertex -5.260904e-15 -4.240192e+01 3.500000e+00
      endloop
   endfacet
   facet normal 0.000000e+00 7.071069e-01 -7.071066e-01
      outer loop
         vertex -4.500000e+00 -4.650000e+01 7.598076e+00
         vertex -5.511839e-15 -4.650000e+01 7.598076e+00
         vertex -5.579077e-15 -4.759808e+01 6.500000e+00
      endloop
   endfacet
   facet normal 0.000000e+00 -2.588190e-01 -9.659258e-01
      outer loop
         vertex -5.328142e-15 -4.350000e+01 7.598076e+00
         vertex -5.419991e-15 -4.500000e+01 8.000000e+00
         vertex -4.500000e+00 -4.350000e+01 7.598076e+00
      endloop
   endfacet
   facet normal 0.000000e+00 2.588190e-01 -9.659258e-01
      outer loop
         vertex -4.500000e+00 -4.650000e+01 7.598076e+00
         vertex -4.500000e+00 -4.500000e+01 8.000000e+00
         vertex -5.511839e-15 -4.650000e+01 7.598076e+00
      endloop
   endfacet
   facet normal 0.000000e+00 -2.588191e-01 9.659258e-01
      outer loop
         vertex -5.328142e-15 -4.350000e+01 2.401924e+00
         vertex -4.500000e+00 -4.350000e+01 2.401924e+00
         vertex -4.500000e+00 -4.500000e+01 2.000000e+00
      endloop
   endfacet
   facet normal 0.000000e+00 2.588191e-01 9.659258e-01
      outer loop
         vertex -5.511839e-15 -4.650000e+01 2.401924e+00
         vertex -5.419991e-15 -4.500000e+01 2.000000e+00
         vertex -4.500000e+00 -4.650000e+01 2.401924e+00
      endloop
   endfacet
   facet normal 0.000000e+00 9.659258e-01 -2.588193e-01
      outer loop
         vertex -2.750000e+01 -4.759808e+01 6.500000e+00
         vertex -2.750000e+01 -4.800000e+01 5.000000e+00
         vertex -3.200000e+01 -4.800000e+01 5.000000e+00
      endloop
   endfacet
   facet normal 0.000000e+00 2.588190e-01 -9.659258e-01
      outer loop
         vertex -3.200000e+01 -4.500000e+01 8.000000e+00
         vertex -2.750000e+01 -4.500000e+01 8.000000e+00
         vertex -2.750000e+01 -4.650000e+01 7.598076e+00
      endloop
   endfacet
   facet normal -0.000000e+00 -7.071069e-01 -7.071066e-01
      outer loop
         vertex -3.200000e+01 -4.240192e+01 6.500000e+00
         vertex -2.750000e+01 -4.240192e+01 6.500000e+00
         vertex -2.750000e+01 -4.350000e+01 7.598076e+00
      endloop
   endfacet
   facet normal 0.000000e+00 -9.659258e-01 2.588193e-01
      outer loop
         vertex -3.200000e+01 -4.240192e+01 3.500000e+00
         vertex -2.750000e+01 -4.240192e+01 3.500000e+00
         vertex -2.750000e+01 -4.200000e+01 5.000000e+00
      endloop
   endfacet
   facet normal 0.000000e+00 -2.588191e-01 9.659258e-01
      outer loop
         vertex -3.200000e+01 -4.500000e+01 2.000000e+00
         vertex -2.750000e+01 -4.500000e+01 2.000000e+00
         vertex -2.750000e+01 -4.350000e+01 2.401924e+00
      endloop
   endfacet
   facet normal 0.000000e+00 7.071069e-01 7.071067e-01
      outer loop
         vertex -3.200000e+01 -4.759808e+01 3.500000e+00
         vertex -2.750000e+01 -4.759808e+01 3.500000e+00
         vertex -2.750000e+01 -4.650000e+01 2.401924e+00
      endloop
   endfacet
   facet normal -0.000000e+00 9.659258e-01 2.588193e-01
      outer loop
         vertex -2.750000e+01 -4.759808e+01 3.500000e+00
         vertex -3.200000e+01 -4.800000e+01 5.000000e+00
         vertex -2.750000e+01 -4.800000e+01 5.000000e+00
      endloop
   endfacet
   facet normal -0.000000e+00 2.588191e-01 9.659258e-01
      outer loop
         vertex -2.750000e+01 -4.500000e+01 2.000000e+00
         vertex -3.200000e+01 -4.500000e+01 2.000000e+00
         vertex -3.200000e+01 -4.650000e+01 2.401924e+00
      endloop
   endfacet
   facet normal 0.000000e+00 -7.071069e-01 7.071067e-01
      outer loop
         vertex -2.750000e+01 -4.240192e+01 3.500000e+00
         vertex -3.200000e+01 -4.240192e+01 3.500000e+00
         vertex -3.200000e+01 -4.350000e+01 2.401924e+00
      endloop
   endfacet
   facet normal 0.000000e+00 -9.659258e-01 -2.588193e-01
      outer loop
         vertex -2.750000e+01 -4.240192e+01 6.500000e+00
         vertex -3.200000e+01 -4.240192e+01 6.500000e+00
         vertex -3.200000e+01 -4.200000e+01 5.000000e+00
      endloop
   endfacet
   facet normal 0.000000e+00 -2.588190e-01 -9.659258e-01
      outer loop
         vertex -2.750000e+01 -4.500000e+01 8.000000e+00
         vertex -3.200000e+01 -4.500000e+01 8.000000e+00
         vertex -3.200000e+01 -4.350000e+01 7.598076e+00
      endloop
   endfacet
   facet normal 0.000000e+00 7.071069e-01 -7.071066e-01
      outer loop
         vertex -2.750000e+01 -4.759808e+01 6.500000e+00
         vertex -3.200000e+01 -4.759808e+01 6.500000e+00
         vertex -3.200000e+01 -4.650000e+01 7.598076e+00
      endloop
   endfacet
   facet normal 0.000000e+00 9.659258e-01 -2.588193e-01
      outer loop
         vertex -3.200000e+01 -4.759808e+01 6.500000e+00
         vertex -2.750000e+01 -4.759808e+01 6.500000e+00
         vertex -3.200000e+01 -4.800000e+01 5.000000e+00
      endloop
   endfacet
   facet normal 0.000000e+00 -9.659258e-01 2.588193e-01
      outer loop
         vertex -3.200000e+01 -4.200000e+01 5.000000e+00
         vertex -3.200000e+01 -4.240192e+01 3.500000e+00
         vertex -2.750000e+01 -4.200000e+01 5.000000e+00
      endloop
   endfacet
   facet normal 0.000000e+00 9.659258e-01 2.588193e-01
      outer loop
         vertex -3.200000e+01 -4.800000e+01 5.000000e+00
         vertex -2.750000e+01 -4.759808e+01 3.500000e+00
         vertex -3.200000e+01 -4.759808e+01 3.500000e+00
      endloop
   endfacet
   facet normal 0.000000e+00 -9.659258e-01 -2.588193e-01
      outer loop
         vertex -2.750000e+01 -4.200000e+01 5.000000e+00
         vertex -2.750000e+01 -4.240192e+01 6.500000e+00
         vertex -3.200000e+01 -4.200000e+01 5.000000e+00
      endloop
   endfacet
   facet normal 0.000000e+00 7.071069e-01 -7.071066e-01
      outer loop
         vertex -3.200000e+01 -4.650000e+01 7.598076e+00
         vertex -2.750000e+01 -4.650000e+01 7.598076e+00
         vertex -2.750000e+01 -4.759808e+01 6.500000e+00
      endloop
   endfacet
   facet normal 0.000000e+00 -7.071069e-01 7.071067e-01
      outer loop
         vertex -3.200000e+01 -4.350000e+01 2.401924e+00
         vertex -2.750000e+01 -4.350000e+01 2.401924e+00
         vertex -2.750000e+01 -4.240192e+01 3.500000e+00
      endloop
   endfacet
   facet normal -0.000000e+00 7.071069e-01 7.071067e-01
      outer loop
         vertex -2.750000e+01 -4.650000e+01 2.401924e+00
         vertex -3.200000e+01 -4.650000e+01 2.401924e+00
         vertex -3.200000e+01 -4.759808e+01 3.500000e+00
      endloop
   endfacet
   facet normal 0.000000e+00 -7.071069e-01 -7.071066e-01
      outer loop
         vertex -2.750000e+01 -4.350000e+01 7.598076e+00
         vertex -3.200000e+01 -4.350000e+01 7.598076e+00
         vertex -3.200000e+01 -4.240192e+01 6.500000e+00
      endloop
   endfacet
   facet normal 0.000000e+00 2.588190e-01 -9.659258e-01
      outer loop
         vertex -3.200000e+01 -4.650000e+01 7.598076e+00
         vertex -3.200000e+01 -4.500000e+01 8.000000e+00
         vertex -2.750000e+01 -4.650000e+01 7.598076e+00
      endloop
   endfacet
   facet normal 0.000000e+00 -2.588190e-01 -9.659258e-01
      outer loop
         vertex -2.750000e+01 -4.350000e+01 7.598076e+00
         vertex -2.750000e+01 -4.500000e+01 8.000000e+00
         vertex -3.200000e+01 -4.350000e+01 7.598076e+00
      endloop
   endfacet
   facet normal 0.000000e+00 2.588191e-01 9.659258e-01
      outer loop
         vertex -3.200000e+01 -4.650000e+01 2.401924e+00
         vertex -2.750000e+01 -4.650000e+01 2.401924e+00
         vertex -2.750000e+01 -4.500000e+01 2.000000e+00
      endloop
   endfacet
   facet normal 0.000000e+00 -2.588191e-01 9.659258e-01
      outer loop
         vertex -3.200000e+01 -4.350000e+01 2.401924e+00
         vertex -3.200000e+01 -4.500000e+01 2.000000e+00
         vertex -2.750000e+01 -4.350000e+01 2.401924e+00
      endloop
   endfacet
   facet normal 1.000000e+00 0.000000e+00 0.000000e+00
      outer loop
         vertex -4.500000e+00 -4.240192e+01 3.500000e+00
         vertex -4.500000e+00 -4.200000e+01 5.000000e+00
         vertex -4.500000e+00 -4.240192e+01 6.500000e+00
      endloop
   endfacet
   facet normal 1.000000e+00 0.000000e+00 0.000000e+00
      outer loop
         vertex -4.500000e+00 -4.350000e+01 7.598076e+00
         vertex -4.500000e+00 -4.500000e+01 8.000000e+00
         vertex -4.500000e+00 -4.650000e+01 7.598076e+00
      endloop
   endfacet
   facet normal 1.000000e+00 0.000000e+00 0.000000e+00
      outer loop
         vertex -4.500000e+00 -4.759808e+01 6.500000e+00
         vertex -4.500000e+00 -4.800000e+01 5.000000e+00
         vertex -4.500000e+00 -4.650000e+01 7.598076e+00
      endloop
   endfacet
   facet normal 1.000000e+00 0.000000e+00 -0.000000e+00
      outer loop
         vertex -4.500000e+00 -4.650000e+01 2.401924e+00
         vertex -4.500000e+00 -4.500000e+01 2.000000e+00
         vertex -4.500000e+00 -4.240192e+01 3.500000e+00
      endloop
   endfacet
   facet normal 1.000000e+00 0.000000e+00 0.000000e+00
      outer loop
         vertex -4.500000e+00 -4.350000e+01 2.401924e+00
         vertex -4.500000e+00 -4.240192e+01 3.500000e+00
         vertex -4.500000e+00 -4.500000e+01 2.000000e+00
      endloop
   endfacet
   facet normal 1.000000e+00 -0.000000e+00 0.000000e+00
      outer loop
         vertex -4.500000e+00 -4.650000e+01 7.598076e+00
         vertex -4.500000e+00 -4.800000e+01 5.000000e+00
         vertex -4.500000e+00 -4.759808e+01 3.500000e+00
      endloop
   endfacet
   facet normal 1.000000e+00 0.000000e+00 0.000000e+00
      outer loop
         vertex -4.500000e+00 -4.240192e+01 6.500000e+00
         vertex -4.500000e+00 -4.350000e+01 7.598076e+00
         vertex -4.500000e+00 -4.240192e+01 3.500000e+00
      endloop
   endfacet
   facet normal 1.000000e+00 -0.000000e+00 0.000000e+00
      outer loop
         vertex -4.500000e+00 -4.350000e+01 7.598076e+00
         vertex -4.500000e+00 -4.650000e+01 7.598076e+00
         vertex -4.500000e+00 -4.759808e+01 3.500000e+00
      endloop
   endfacet
   facet normal 1.000000e+00 0.000000e+00 0.000000e+00
      outer loop
         vertex -4.500000e+00 -4.240192e+01 3.500000e+00
         vertex -4.500000e+00 -4.350000e+01 7.598076e+00
         vertex -4.500000e+00 -4.759808e+01 3.500000e+00
      endloop
   endfacet
   facet normal 1.000000e+00 0.000000e+00 -0.000000e+00
      outer loop
         vertex -4.500000e+00 -4.759808e+01 3.500000e+00
         vertex -4.500000e+00 -4.650000e+01 2.401924e+00
         vertex -4.500000e+00 -4.240192e+01 3.500000e+00
      endloop
   endfacet
   facet normal -1.000000e+00 0.000000e+00 0.000000e+00
      outer loop
         vertex -2.750000e+01 -4.759808e+01 3.500000e+00
         vertex -2.750000e+01 -4.800000e+01 5.000000e+00
         vertex -2.750000e+01 -4.759808e+01 6.500000e+00
      endloop
   endfacet
   facet normal -1.000000e+00 0.000000e+00 -0.000000e+00
      outer loop
         vertex -2.750000e+01 -4.650000e+01 7.598076e+00
         vertex -2.750000e+01 -4.500000e+01 8.000000e+00
         vertex -2.750000e+01 -4.350000e+01 7.598076e+00
      endloop
   endfacet
   facet normal -1.000000e+00 0.000000e+00 0.000000e+00
      outer loop
         vertex -2.750000e+01 -4.240192e+01 6.500000e+00
         vertex -2.750000e+01 -4.200000e+01 5.000000e+00
         vertex -2.750000e+01 -4.350000e+01 7.598076e+00
      endloop
   endfacet
   facet normal -1.000000e+00 0.000000e+00 0.000000e+00
      outer loop
         vertex -2.750000e+01 -4.350000e+01 2.401924e+00
         vertex -2.750000e+01 -4.500000e+01 2.000000e+00
         vertex -2.750000e+01 -4.759808e+01 3.500000e+00
      endloop
   endfacet
   facet normal -1.000000e+00 0.000000e+00 0.000000e+00
      outer loop
         vertex -2.750000e+01 -4.650000e+01 2.401924e+00
         vertex -2.750000e+01 -4.759808e+01 3.500000e+00
         vertex -2.750000e+01 -4.500000e+01 2.000000e+00
      endloop
   endfacet
   facet normal -1.000000e+00 -0.000000e+00 0.000000e+00
      outer loop
         vertex -2.750000e+01 -4.350000e+01 7.598076e+00
         vertex -2.750000e+01 -4.200000e+01 5.000000e+00
         vertex -2.750000e+01 -4.240192e+01 3.500000e+00
      endloop
   endfacet
   facet normal -1.000000e+00 0.000000e+00 0.000000e+00
      outer loop
         vertex -2.750000e+01 -4.759808e+01 6.500000e+00
         vertex -2.750000e+01 -4.650000e+01 7.598076e+00
         vertex -2.750000e+01 -4.759808e+01 3.500000e+00
      endloop
   endfacet
   facet normal -1.000000e+00 -0.000000e+00 -0.000000e+00
      outer loop
         vertex -2.750000e+01 -4.650000e+01 7.598076e+00
         vertex -2.750000e+01 -4.350000e+01 7.598076e+00
         vertex -2.750000e+01 -4.240192e+01 3.500000e+00
      endloop
   endfacet
   facet normal -1.000000e+00 0.000000e+00 -0.000000e+00
      outer loop
         vertex -2.750000e+01 -4.759808e+01 3.500000e+00
         vertex -2.750000e+01 -4.650000e+01 7.598076e+00
         vertex -2.750000e+01 -4.240192e+01 3.500000e+00
      endloop
   endfacet
   facet normal -1.000000e+00 0.000000e+00 0.000000e+00
      outer loop
         vertex -2.750000e+01 -4.240192e+01 3.500000e+00
         vertex -2.750000e+01 -4.350000e+01 2.401924e+00
         vertex -2.750000e+01 -4.759808e+01 3.500000e+00
      endloop
   endfacet
   facet normal -1.215187e-02 -9.807127e-01 1.950766e-01
      outer loop
         vertex -3.200000e+01 -4.961940e+01 6.913417e+00
         vertex -3.200000e+01 -5.000000e+01 5.000000e+00
         vertex -2.550116e+01 -4.980656e+01 6.377314e+00
      endloop
   endfacet
   facet normal 0.000000e+00 -9.902809e-01 1.390819e-01
      outer loop
         vertex -2.412404e+01 -5.000000e+01 5.000000e+00
         vertex -2.550116e+01 -4.980656e+01 6.377314e+00
         vertex -3.200000e+01 -5.000000e+01 5.000000e+00
      endloop
   endfacet
   facet normal 6.600253e-03 -7.123840e-01 7.017588e-01
      outer loop
         vertex -2.671545e+01 -4.895161e+01 8.063451e+00
         vertex -2.716985e+01 -4.814270e+01 8.888890e+00
         vertex -3.200000e+01 -4.853553e+01 8.535534e+00
      endloop
   endfacet
   facet normal 3.926501e-03 -3.804365e-01 9.247987e-01
      outer loop
         vertex -2.743290e+01 -4.728680e+01 9.446406e+00
         vertex -2.756911e+01 -4.651001e+01 9.766535e+00
         vertex -3.200000e+01 -4.691342e+01 9.619398e+00
      endloop
   endfacet
   facet normal 0.000000e+00 -4.909904e-02 9.987939e-01
      outer loop
         vertex -2.765257e+01 -4.549039e+01 9.975893e+00
         vertex -2.766190e+01 -4.500000e+01 1.000000e+01
         vertex -3.200000e+01 -4.500000e+01 1.000000e+01
      endloop
   endfacet
   facet normal -1.564066e-02 -5.555026e-01 8.313677e-01
      outer loop
         vertex -3.200000e+01 -4.691342e+01 9.619398e+00
         vertex -3.200000e+01 -4.853553e+01 8.535534e+00
         vertex -2.716985e+01 -4.814270e+01 8.888890e+00
      endloop
   endfacet
   facet normal 6.009815e-03 -9.191930e-01 3.937614e-01
      outer loop
         vertex -3.200000e+01 -4.961940e+01 6.913417e+00
         vertex -2.550116e+01 -4.980656e+01 6.377314e+00
         vertex -2.635132e+01 -4.933425e+01 7.492852e+00
      endloop
   endfacet
   facet normal -1.410661e-02 -2.022215e-01 9.792382e-01
      outer loop
         vertex -3.200000e+01 -4.691342e+01 9.619398e+00
         vertex -2.756911e+01 -4.651001e+01 9.766535e+00
         vertex -2.765257e+01 -4.549039e+01 9.975893e+00
      endloop
   endfacet
   facet normal -1.434147e-02 -8.346704e-01 5.505630e-01
      outer loop
         vertex -3.200000e+01 -4.961940e+01 6.913417e+00
         vertex -2.635132e+01 -4.933425e+01 7.492852e+00
         vertex -2.671545e+01 -4.895161e+01 8.063451e+00
      endloop
   endfacet
   facet normal -1.318595e-02 -5.485992e-01 8.359815e-01
      outer loop
         vertex -2.716985e+01 -4.814270e+01 8.888890e+00
         vertex -2.743290e+01 -4.728680e+01 9.446406e+00
         vertex -3.200000e+01 -4.691342e+01 9.619398e+00
      endloop
   endfacet
   facet normal -1.583348e-02 -8.313657e-01 5.555001e-01
      outer loop
         vertex -3.200000e+01 -4.853553e+01 8.535534e+00
         vertex -3.200000e+01 -4.961940e+01 6.913417e+00
         vertex -2.671545e+01 -4.895161e+01 8.063451e+00
      endloop
   endfacet
   facet normal -1.656553e-02 -1.950633e-01 9.806508e-01
      outer loop
         vertex -3.200000e+01 -4.691342e+01 9.619398e+00
         vertex -2.765257e+01 -4.549039e+01 9.975893e+00
         vertex -3.200000e+01 -4.500000e+01 1.000000e+01
      endloop
   endfacet
   facet normal 0.000000e+00 -9.902809e-01 1.390819e-01
      outer loop
         vertex -6.498844e+00 -4.980656e+01 6.377314e+00
         vertex -7.875962e+00 -5.000000e+01 5.000000e+00
         vertex -7.962267e-15 -5.000000e+01 5.000000e+00
      endloop
   endfacet
   facet normal 1.583348e-02 -8.313657e-01 5.555001e-01
      outer loop
         vertex -6.591026e-15 -4.961940e+01 6.913417e+00
         vertex -1.007737e-14 -4.853553e+01 8.535534e+00
         vertex -5.284552e+00 -4.895161e+01 8.063451e+00
      endloop
   endfacet
   facet normal 1.656553e-02 -1.950633e-01 9.806508e-01
      outer loop
         vertex -6.425332e-15 -4.691342e+01 9.619398e+00
         vertex -7.226654e-15 -4.500000e+01 1.000000e+01
         vertex -4.347427e+00 -4.549039e+01 9.975893e+00
      endloop
   endfacet
   facet normal 0.000000e+00 -4.909904e-02 9.987939e-01
      outer loop
         vertex -4.338096e+00 -4.500000e+01 1.000000e+01
         vertex -4.347427e+00 -4.549039e+01 9.975893e+00
         vertex -7.226654e-15 -4.500000e+01 1.000000e+01
      endloop
   endfacet
   facet normal 1.318595e-02 -5.485992e-01 8.359815e-01
      outer loop
         vertex -4.567101e+00 -4.728680e+01 9.446406e+00
         vertex -4.830155e+00 -4.814270e+01 8.888890e+00
         vertex -6.425332e-15 -4.691342e+01 9.619398e+00
      endloop
   endfacet
   facet normal 1.434147e-02 -8.346704e-01 5.505631e-01
      outer loop
         vertex -5.284552e+00 -4.895161e+01 8.063451e+00
         vertex -5.648677e+00 -4.933425e+01 7.492852e+00
         vertex -6.591026e-15 -4.961940e+01 6.913417e+00
      endloop
   endfacet
   facet normal 1.215187e-02 -9.807127e-01 1.950766e-01
      outer loop
         vertex -6.498844e+00 -4.980656e+01 6.377314e+00
         vertex -7.962267e-15 -5.000000e+01 5.000000e+00
         vertex -6.591026e-15 -4.961940e+01 6.913417e+00
      endloop
   endfacet
   facet normal -3.926501e-03 -3.804365e-01 9.247987e-01
      outer loop
         vertex -4.567101e+00 -4.728680e+01 9.446406e+00
         vertex -6.425332e-15 -4.691342e+01 9.619398e+00
         vertex -4.430890e+00 -4.651001e+01 9.766535e+00
      endloop
   endfacet
   facet normal -6.009816e-03 -9.191930e-01 3.937614e-01
      outer loop
         vertex -6.498844e+00 -4.980656e+01 6.377314e+00
         vertex -6.591026e-15 -4.961940e+01 6.913417e+00
         vertex -5.648677e+00 -4.933425e+01 7.492852e+00
      endloop
   endfacet
   facet normal 1.564066e-02 -5.555026e-01 8.313677e-01
      outer loop
         vertex -1.007737e-14 -4.853553e+01 8.535534e+00
         vertex -6.425332e-15 -4.691342e+01 9.619398e+00
         vertex -4.830155e+00 -4.814270e+01 8.888890e+00
      endloop
   endfacet
   facet normal -6.600253e-03 -7.123840e-01 7.017588e-01
      outer loop
         vertex -4.830155e+00 -4.814270e+01 8.888890e+00
         vertex -5.284552e+00 -4.895161e+01 8.063451e+00
         vertex -1.007737e-14 -4.853553e+01 8.535534e+00
      endloop
   endfacet
   facet normal 1.410661e-02 -2.022216e-01 9.792382e-01
      outer loop
         vertex -4.430890e+00 -4.651001e+01 9.766535e+00
         vertex -6.425332e-15 -4.691342e+01 9.619398e+00
         vertex -4.347427e+00 -4.549039e+01 9.975893e+00
      endloop
   endfacet
endsolid
